<?xml version="1.0" encoding="UTF-8" standalone="no"?>
<!DOCTYPE svg PUBLIC "-//W3C//DTD SVG 1.1//EN" "http://www.w3.org/Graphics/SVG/1.1/DTD/svg11.dtd">
<svg width="100%" height="100%" viewBox="0 0 97 124" version="1.1" xmlns="http://www.w3.org/2000/svg" xmlns:xlink="http://www.w3.org/1999/xlink" xml:space="preserve" xmlns:serif="http://www.serif.com/" style="fill-rule:evenodd;clip-rule:evenodd;stroke-linejoin:round;stroke-miterlimit:2;">
    <path d="M50.226,118.709C47.447,116.903 40.083,110.372 47.447,100.091C54.811,89.809 48.419,84.469 44.251,79.944C40.083,75.42 44.251,73.831 48.419,72.58C52.577,71.333 63.008,69.663 65.926,65.216C68.844,60.77 63.147,55.722 65.926,52.573C68.705,49.423 79.259,45.741 82.599,46.32C85.939,46.899 85.968,56.046 85.968,56.046C85.968,56.046 87.469,62.38 88.99,65.216C90.721,68.445 95.775,72.965 96.354,75.42C96.811,77.356 92.464,79.944 92.464,79.944C92.464,79.944 93.992,81.913 93.992,82.584C93.992,83.256 92.464,83.973 92.464,83.973C92.464,83.973 93.992,86.243 93.992,86.891C93.992,87.495 92.464,87.864 92.464,87.864C92.464,87.864 94.146,92.887 92.464,94.116C90.657,95.436 84.835,94.033 81.626,95.783C73.73,100.091 71.159,118.778 65.926,122.599C61.571,125.778 55.251,121.975 50.226,118.709Z"/>
    <path d="M78.066,63.122C81.091,62.225 83.522,62.145 83.872,63.324C84.222,64.503 85.208,65.469 82.182,66.366C79.157,67.263 72.521,68.023 72.171,66.844C71.822,65.665 75.04,64.019 78.066,63.122Z" style="fill:white;"/>
    <path d="M36.165,67.551C41.966,72.119 56.775,64.911 60.619,61.438C63.653,58.696 59.11,52.767 61.73,49.628C64.648,46.131 79.155,43.277 77.292,37.957C74.721,30.616 56.636,3.576 45.474,0.581C39.266,-1.084 30.079,0.962 21.942,5.027C15.449,8.271 0.606,11.07 0.04,15.869C-1.233,26.683 27.921,61.059 36.165,67.551Z" style="fill:rgb(2,166,84);"/>
</svg>
